# xmcd
#
# Track frame offsets: 
#        150
#        10717
#        24064
#        38148
#        46858
#        56399
#        68320
#        83907
#        93730
#        108839
#
# Disc length: 1627 seconds
#
# Revision: 0
# Processed by: cddbd v1.5.2PL0 Copyright (c) Steve Scherf et al.
# Submitted via: ExactAudioCopy v1.0b1
#
DISCID=6406590a
DTITLE=Stella Parton - Love Ya
DYEAR=1978
DGENRE=Country
TTITLE0=I Cried For The Lady
TTITLE1=Long Lost Love
TTITLE2=The Room At The Top Of The Stairs
TTITLE3=Someone
TTITLE4=Little Inconvienent
TTITLE5=Steady As The Rain
TTITLE6=I Want To Hold You In My Dreams
TTITLE7=Honey, Come Home
TTITLE8=The Rest Of The Way
TTITLE9=Stormy Weather
EXTD=
EXTT0=
EXTT1=
EXTT2=
EXTT3=
EXTT4=
EXTT5=
EXTT6=
EXTT7=
EXTT8=
EXTT9=
PLAYORDER=
